<svg width="100px" height="100px" viewBox="0 0 100 100" version="1.1" xmlns="http://www.w3.org/2000/svg" xmlns:xlink="http://www.w3.org/1999/xlink">
    <!-- Generator: Sketch 48.2 (47327) - http://www.bohemiancoding.com/sketch -->
    <desc>Created with Sketch.</desc>
    <defs></defs>
    <g id="Page-1" stroke="none" stroke-width="1" fill="none" fill-rule="evenodd">
        <g id="Artboard" transform="translate(-161.000000, -157.000000)">
            <g id="1/2" transform="translate(161.000000, 157.000000)">
                <rect id="Fill" fill="#27323E" x="0" y="0" width="50" height="100"></rect>
                <path d="M4,4 L4,96 L96,96 L96,4 L4,4 Z M0,0 L100,0 L100,100 L0,100 L0,0 Z" id="Border" fill="#27323E" fill-rule="nonzero"></path>
                <path d="M35.48,55.24 L35.48,60 L17.28,60 L17.28,55.24 L23.84,55.24 L23.84,40.56 L18.6,40.56 L18.6,36.92 C20.0933408,36.653332 21.3666614,36.3333352 22.42,35.96 C23.4733386,35.5866648 24.466662,35.133336 25.4,34.6 L29.72,34.6 L29.72,55.24 L35.48,55.24 Z M45.88,66.4 L40.96,66.4 L54.12,31.6 L59.04,31.6 L45.88,66.4 Z M64.32,56.64 C66.1333424,55.1199924 67.7866592,53.7000066 69.28,52.38 C70.7733408,51.0599934 72.053328,49.8266724 73.12,48.68 C74.186672,47.5333276 75.0133304,46.4533384 75.6,45.44 C76.1866696,44.4266616 76.48,43.4666712 76.48,42.56 C76.48,41.3066604 76.1200036,40.3533366 75.4,39.7 C74.6799964,39.0466634 73.65334,38.72 72.32,38.72 C71.3066616,38.72 70.3800042,38.9799974 69.54,39.5 C68.6999958,40.0200026 67.9200036,40.6266632 67.2,41.32 L64.04,38.16 C64.70667,37.49333 65.3666634,36.9066692 66.02,36.4 C66.6733366,35.8933308 67.366663,35.473335 68.1,35.14 C68.833337,34.806665 69.6066626,34.5533342 70.42,34.38 C71.2333374,34.2066658 72.1333284,34.12 73.12,34.12 C74.45334,34.12 75.6666612,34.3133314 76.76,34.7 C77.8533388,35.0866686 78.7933294,35.6333298 79.58,36.34 C80.3666706,37.0466702 80.9799978,37.8933284 81.42,38.88 C81.8600022,39.8666716 82.08,40.9733272 82.08,42.2 C82.08,43.266672 81.8266692,44.3533278 81.32,45.46 C80.8133308,46.5666722 80.126671,47.6733278 79.26,48.78 C78.393329,49.8866722 77.4000056,50.9933278 76.28,52.1 C75.1599944,53.2066722 73.9866728,54.293328 72.76,55.36 C73.4800036,55.2799996 74.2599958,55.206667 75.1,55.14 C75.9400042,55.073333 76.69333,55.04 77.36,55.04 L83.4,55.04 L83.4,60 L64.32,60 L64.32,56.64 Z" fill="#FFFFFF"></path>
                <path d="M50,55.6823183 L50,42.4807387 L54.12,31.6 L59.04,31.6 L50,55.6823183 Z M64.32,56.64 C66.1333424,55.1199924 67.7866592,53.7000066 69.28,52.38 C70.7733408,51.0599934 72.053328,49.8266724 73.12,48.68 C74.186672,47.5333276 75.0133304,46.4533384 75.6,45.44 C76.1866696,44.4266616 76.48,43.4666712 76.48,42.56 C76.48,41.3066604 76.1200036,40.3533366 75.4,39.7 C74.6799964,39.0466634 73.65334,38.72 72.32,38.72 C71.3066616,38.72 70.3800042,38.9799974 69.54,39.5 C68.6999958,40.0200026 67.9200036,40.6266632 67.2,41.32 L64.04,38.16 C64.70667,37.49333 65.3666634,36.9066692 66.02,36.4 C66.6733366,35.8933308 67.366663,35.473335 68.1,35.14 C68.833337,34.806665 69.6066626,34.5533342 70.42,34.38 C71.2333374,34.2066658 72.1333284,34.12 73.12,34.12 C74.45334,34.12 75.6666612,34.3133314 76.76,34.7 C77.8533388,35.0866686 78.7933294,35.6333298 79.58,36.34 C80.3666706,37.0466702 80.9799978,37.8933284 81.42,38.88 C81.8600022,39.8666716 82.08,40.9733272 82.08,42.2 C82.08,43.266672 81.8266692,44.3533278 81.32,45.46 C80.8133308,46.5666722 80.126671,47.6733278 79.26,48.78 C78.393329,49.8866722 77.4000056,50.9933278 76.28,52.1 C75.1599944,53.2066722 73.9866728,54.293328 72.76,55.36 C73.4800036,55.2799996 74.2599958,55.206667 75.1,55.14 C75.9400042,55.073333 76.69333,55.04 77.36,55.04 L83.4,55.04 L83.4,60 L64.32,60 L64.32,56.64 Z" fill="#27323E"></path>
            </g>
        </g>
    </g>
</svg>