<svg width="100px" height="100px" viewBox="0 0 100 100" version="1.1" xmlns="http://www.w3.org/2000/svg" xmlns:xlink="http://www.w3.org/1999/xlink">
    <!-- Generator: Sketch 48.2 (47327) - http://www.bohemiancoding.com/sketch -->
    <desc>Created with Sketch.</desc>
    <defs></defs>
    <g id="Page-1" stroke="none" stroke-width="1" fill="none" fill-rule="evenodd">
        <g id="Artboard" transform="translate(-401.000000, -157.000000)">
            <g id="1/3" transform="translate(401.000000, 157.000000)">
                <rect id="Fill" fill="#27323E" x="0" y="0" width="33" height="100"></rect>
                <path d="M4,4 L4,96 L96,96 L96,4 L4,4 Z M0,0 L100,0 L100,100 L0,100 L0,0 Z" id="Border" fill="#27323E" fill-rule="nonzero"></path>
                <path d="M35.48,55.24 L35.48,60 L17.28,60 L17.28,55.24 L23.84,55.24 L23.84,40.56 L18.6,40.56 L18.6,36.92 C20.0933408,36.653332 21.3666614,36.3333352 22.42,35.96 C23.4733386,35.5866648 24.466662,35.133336 25.4,34.6 L29.72,34.6 L29.72,55.24 L35.48,55.24 Z M45.88,66.4 L40.96,66.4 L54.12,31.6 L59.04,31.6 L45.88,66.4 Z M66.4,53.16 C67.2533376,53.9066704 68.2066614,54.5199976 69.26,55 C70.3133386,55.4800024 71.4266608,55.72 72.6,55.72 C73.9866736,55.72 75.1266622,55.4600026 76.02,54.94 C76.9133378,54.4199974 77.36,53.6800048 77.36,52.72 C77.36,52.1599972 77.2400012,51.6533356 77,51.2 C76.7599988,50.7466644 76.3466696,50.3666682 75.76,50.06 C75.1733304,49.7533318 74.3866716,49.5133342 73.4,49.34 C72.4133284,49.1666658 71.1733408,49.08 69.68,49.08 L69.68,44.92 C72.1866792,44.92 73.9533282,44.6066698 74.98,43.98 C76.0066718,43.3533302 76.52,42.5333384 76.52,41.52 C76.52,40.6399956 76.18667,39.9533358 75.52,39.46 C74.85333,38.9666642 73.9333392,38.72 72.76,38.72 C71.7466616,38.72 70.8133376,38.919998 69.96,39.32 C69.1066624,39.720002 68.2400044,40.2666632 67.36,40.96 L64.4,37.36 C65.6533396,36.3466616 66.9933262,35.5533362 68.42,34.98 C69.8466738,34.4066638 71.3866584,34.12 73.04,34.12 C74.4266736,34.12 75.6933276,34.2733318 76.84,34.58 C77.9866724,34.8866682 78.9733292,35.339997 79.8,35.94 C80.6266708,36.540003 81.2666644,37.2666624 81.72,38.12 C82.1733356,38.9733376 82.4,39.9599944 82.4,41.08 C82.4,42.41334 81.9733376,43.5399954 81.12,44.46 C80.2666624,45.3800046 79.0800076,46.1333304 77.56,46.72 L77.56,46.88 C79.160008,47.3066688 80.5066612,48.0333282 81.6,49.06 C82.6933388,50.0866718 83.24,51.4266584 83.24,53.08 C83.24,54.2533392 82.9666694,55.2999954 82.42,56.22 C81.8733306,57.1400046 81.1400046,57.9133302 80.22,58.54 C79.2999954,59.1666698 78.2266728,59.646665 77,59.98 C75.7733272,60.313335 74.49334,60.48 73.16,60.48 C70.9733224,60.48 69.0933412,60.1533366 67.52,59.5 C65.9466588,58.8466634 64.6666716,57.9733388 63.68,56.88 L66.4,53.16 Z" fill="#FFFFFF"></path>
                <path d="M35.48,55.24 L35.48,60 L32.9204237,60 L32.9204237,55.24 L35.48,55.24 Z M45.88,66.4 L40.96,66.4 L54.12,31.6 L59.04,31.6 L45.88,66.4 Z M66.4,53.16 C67.2533376,53.9066704 68.2066614,54.5199976 69.26,55 C70.3133386,55.4800024 71.4266608,55.72 72.6,55.72 C73.9866736,55.72 75.1266622,55.4600026 76.02,54.94 C76.9133378,54.4199974 77.36,53.6800048 77.36,52.72 C77.36,52.1599972 77.2400012,51.6533356 77,51.2 C76.7599988,50.7466644 76.3466696,50.3666682 75.76,50.06 C75.1733304,49.7533318 74.3866716,49.5133342 73.4,49.34 C72.4133284,49.1666658 71.1733408,49.08 69.68,49.08 L69.68,44.92 C72.1866792,44.92 73.9533282,44.6066698 74.98,43.98 C76.0066718,43.3533302 76.52,42.5333384 76.52,41.52 C76.52,40.6399956 76.18667,39.9533358 75.52,39.46 C74.85333,38.9666642 73.9333392,38.72 72.76,38.72 C71.7466616,38.72 70.8133376,38.919998 69.96,39.32 C69.1066624,39.720002 68.2400044,40.2666632 67.36,40.96 L64.4,37.36 C65.6533396,36.3466616 66.9933262,35.5533362 68.42,34.98 C69.8466738,34.4066638 71.3866584,34.12 73.04,34.12 C74.4266736,34.12 75.6933276,34.2733318 76.84,34.58 C77.9866724,34.8866682 78.9733292,35.339997 79.8,35.94 C80.6266708,36.540003 81.2666644,37.2666624 81.72,38.12 C82.1733356,38.9733376 82.4,39.9599944 82.4,41.08 C82.4,42.41334 81.9733376,43.5399954 81.12,44.46 C80.2666624,45.3800046 79.0800076,46.1333304 77.56,46.72 L77.56,46.88 C79.160008,47.3066688 80.5066612,48.0333282 81.6,49.06 C82.6933388,50.0866718 83.24,51.4266584 83.24,53.08 C83.24,54.2533392 82.9666694,55.2999954 82.42,56.22 C81.8733306,57.1400046 81.1400046,57.9133302 80.22,58.54 C79.2999954,59.1666698 78.2266728,59.646665 77,59.98 C75.7733272,60.313335 74.49334,60.48 73.16,60.48 C70.9733224,60.48 69.0933412,60.1533366 67.52,59.5 C65.9466588,58.8466634 64.6666716,57.9733388 63.68,56.88 L66.4,53.16 Z" fill="#27323E"></path>
            </g>
        </g>
    </g>
</svg>