<svg width="100px" height="100px" viewBox="0 0 100 100" version="1.1" xmlns="http://www.w3.org/2000/svg" xmlns:xlink="http://www.w3.org/1999/xlink">
    <!-- Generator: Sketch 48.2 (47327) - http://www.bohemiancoding.com/sketch -->
    <desc>Created with Sketch.</desc>
    <defs></defs>
    <g id="Page-1" stroke="none" stroke-width="1" fill="none" fill-rule="evenodd">
        <g id="Artboard" transform="translate(-521.000000, -157.000000)">
            <g id="1/4" transform="translate(521.000000, 157.000000)">
                <rect id="Fill" fill="#27323E" x="0" y="0" width="25" height="100"></rect>
                <path d="M4,4 L4,96 L96,96 L96,4 L4,4 Z M0,0 L100,0 L100,100 L0,100 L0,0 Z" id="Border" fill="#27323E" fill-rule="nonzero"></path>
                <path d="M35.48,55.24 L35.48,60 L17.28,60 L17.28,55.24 L23.84,55.24 L23.84,40.56 L18.6,40.56 L18.6,36.92 C20.0933408,36.653332 23.9492894,35.243658 25.002628,34.8703228 C26.0559666,34.4969876 24.466662,35.133336 25.4,34.6 L29.72,34.6 L29.72,55.24 L35.48,55.24 Z M45.88,66.4 L40.96,66.4 L54.12,31.6 L59.04,31.6 L45.88,66.4 Z M75.64,49.44 L75.64,45.16 C75.64,44.359996 75.6599998,43.4333386 75.7,42.38 C75.7400002,41.3266614 75.7866664,40.400004 75.84,39.6 L75.68,39.6 C75.2533312,40.3200036 74.8000024,41.0399964 74.32,41.76 C73.8399976,42.4800036 73.3733356,43.1999964 72.92,43.92 L69.08,49.44 L75.64,49.44 Z M84.32,53.92 L81.12,53.92 L81.12,60 L75.64,60 L75.64,53.92 L63.4,53.92 L63.4,49.88 L74,34.6 L81.12,34.6 L81.12,49.44 L84.32,49.44 L84.32,53.92 Z" fill="#27323E"></path>
                <path d="M24.9816865,60 L17.28,60 L17.28,55.24 L23.84,55.24 L23.84,40.56 L18.6,40.56 L18.6,36.92 C20.0933408,36.653332 21.3666614,36.3333352 22.42,35.96 C23.4733386,35.5866648 24.0483485,35.429961 24.9816865,34.896625 L24.9816865,55.24 L24.9816865,60 Z" fill="#FFFFFF"></path>
            </g>
        </g>
    </g>
</svg>