<svg width="100px" height="100px" viewBox="0 0 100 100" version="1.1" xmlns="http://www.w3.org/2000/svg" xmlns:xlink="http://www.w3.org/1999/xlink">
    <!-- Generator: Sketch 48.2 (47327) - http://www.bohemiancoding.com/sketch -->
    <desc>Created with Sketch.</desc>
    <defs></defs>
    <g id="Page-1" stroke="none" stroke-width="1" fill="none" fill-rule="evenodd">
        <g id="Artboard" transform="translate(-521.000000, -37.000000)">
            <g id="2/3" transform="translate(521.000000, 37.000000)">
                <rect id="Fill" fill="#27323E" x="0" y="0" width="66.6699982" height="100"></rect>
                <path d="M4,4 L4,96 L96,96 L96,4 L4,4 Z M0,0 L100,0 L100,100 L0,100 L0,0 Z" id="Border" fill="#27323E" fill-rule="nonzero"></path>
                <path d="M16.32,56.64 C18.1333424,55.1199924 19.7866592,53.7000066 21.28,52.38 C22.7733408,51.0599934 24.053328,49.8266724 25.12,48.68 C26.186672,47.5333276 27.0133304,46.4533384 27.6,45.44 C28.1866696,44.4266616 28.48,43.4666712 28.48,42.56 C28.48,41.3066604 28.1200036,40.3533366 27.4,39.7 C26.6799964,39.0466634 25.65334,38.72 24.32,38.72 C23.3066616,38.72 22.3800042,38.9799974 21.54,39.5 C20.6999958,40.0200026 19.9200036,40.6266632 19.2,41.32 L16.04,38.16 C16.70667,37.49333 17.3666634,36.9066692 18.02,36.4 C18.6733366,35.8933308 19.366663,35.473335 20.1,35.14 C20.833337,34.806665 21.6066626,34.5533342 22.42,34.38 C23.2333374,34.2066658 24.1333284,34.12 25.12,34.12 C26.45334,34.12 27.6666612,34.3133314 28.76,34.7 C29.8533388,35.0866686 30.7933294,35.6333298 31.58,36.34 C32.3666706,37.0466702 32.9799978,37.8933284 33.42,38.88 C33.8600022,39.8666716 34.08,40.9733272 34.08,42.2 C34.08,43.266672 33.8266692,44.3533278 33.32,45.46 C32.8133308,46.5666722 32.126671,47.6733278 31.26,48.78 C30.393329,49.8866722 29.4000056,50.9933278 28.28,52.1 C27.1599944,53.2066722 25.9866728,54.293328 24.76,55.36 C25.4800036,55.2799996 26.2599958,55.206667 27.1,55.14 C27.9400042,55.073333 28.69333,55.04 29.36,55.04 L35.4,55.04 L35.4,60 L16.32,60 L16.32,56.64 Z M45.88,66.4 L40.96,66.4 L54.12,31.6 L59.04,31.6 L45.88,66.4 Z M66.4,53.16 C67.2533376,53.9066704 68.2066614,54.5199976 69.26,55 C70.3133386,55.4800024 71.4266608,55.72 72.6,55.72 C73.9866736,55.72 75.1266622,55.4600026 76.02,54.94 C76.9133378,54.4199974 77.36,53.6800048 77.36,52.72 C77.36,52.1599972 77.2400012,51.6533356 77,51.2 C76.7599988,50.7466644 76.3466696,50.3666682 75.76,50.06 C75.1733304,49.7533318 74.3866716,49.5133342 73.4,49.34 C72.4133284,49.1666658 71.1733408,49.08 69.68,49.08 L69.68,44.92 C72.1866792,44.92 73.9533282,44.6066698 74.98,43.98 C76.0066718,43.3533302 76.52,42.5333384 76.52,41.52 C76.52,40.6399956 76.18667,39.9533358 75.52,39.46 C74.85333,38.9666642 73.9333392,38.72 72.76,38.72 C71.7466616,38.72 70.8133376,38.919998 69.96,39.32 C69.1066624,39.720002 68.2400044,40.2666632 67.36,40.96 L64.4,37.36 C65.6533396,36.3466616 66.9933262,35.5533362 68.42,34.98 C69.8466738,34.4066638 71.3866584,34.12 73.04,34.12 C74.4266736,34.12 75.6933276,34.2733318 76.84,34.58 C77.9866724,34.8866682 78.9733292,35.339997 79.8,35.94 C80.6266708,36.540003 81.2666644,37.2666624 81.72,38.12 C82.1733356,38.9733376 82.4,39.9599944 82.4,41.08 C82.4,42.41334 81.9733376,43.5399954 81.12,44.46 C80.2666624,45.3800046 79.0800076,46.1333304 77.56,46.72 L77.56,46.88 C79.160008,47.3066688 80.5066612,48.0333282 81.6,49.06 C82.6933388,50.0866718 83.24,51.4266584 83.24,53.08 C83.24,54.2533392 82.9666694,55.2999954 82.42,56.22 C81.8733306,57.1400046 81.1400046,57.9133302 80.22,58.54 C79.2999954,59.1666698 78.2266728,59.646665 77,59.98 C75.7733272,60.313335 74.49334,60.48 73.16,60.48 C70.9733224,60.48 69.0933412,60.1533366 67.52,59.5 C65.9466588,58.8466634 64.6666716,57.9733388 63.68,56.88 L66.4,53.16 Z" fill="#FFFFFF"></path>
                <path d="M66.4,53.16 C67.2533376,53.9066704 68.2066614,54.5199976 69.26,55 C70.3133386,55.4800024 71.4266608,55.72 72.6,55.72 C73.9866736,55.72 75.1266622,55.4600026 76.02,54.94 C76.9133378,54.4199974 77.36,53.6800048 77.36,52.72 C77.36,52.1599972 77.2400012,51.6533356 77,51.2 C76.7599988,50.7466644 76.3466696,50.3666682 75.76,50.06 C75.1733304,49.7533318 74.3866716,49.5133342 73.4,49.34 C72.4133284,49.1666658 71.1733408,49.08 69.68,49.08 L69.68,44.92 C72.1866792,44.92 73.9533282,44.6066698 74.98,43.98 C76.0066718,43.3533302 76.52,42.5333384 76.52,41.52 C76.52,40.6399956 76.18667,39.9533358 75.52,39.46 C74.85333,38.9666642 73.9333392,38.72 72.76,38.72 C71.7466616,38.72 70.8133376,38.919998 69.96,39.32 C69.1066624,39.720002 68.2400044,40.2666632 67.36,40.96 L64.4,37.36 C65.6533396,36.3466616 66.9933262,35.5533362 68.42,34.98 C69.8466738,34.4066638 71.3866584,34.12 73.04,34.12 C74.4266736,34.12 75.6933276,34.2733318 76.84,34.58 C77.9866724,34.8866682 78.9733292,35.339997 79.8,35.94 C80.6266708,36.540003 81.2666644,37.2666624 81.72,38.12 C82.1733356,38.9733376 82.4,39.9599944 82.4,41.08 C82.4,42.41334 81.9733376,43.5399954 81.12,44.46 C80.2666624,45.3800046 79.0800076,46.1333304 77.56,46.72 L77.56,46.88 C79.160008,47.3066688 80.5066612,48.0333282 81.6,49.06 C82.6933388,50.0866718 83.24,51.4266584 83.24,53.08 C83.24,54.2533392 82.9666694,55.2999954 82.42,56.22 C81.8733306,57.1400046 81.1400046,57.9133302 80.22,58.54 C79.2999954,59.1666698 78.2266728,59.646665 77,59.98 C75.7733272,60.313335 74.49334,60.48 73.16,60.48 C70.9733224,60.48 69.0933412,60.1533366 67.52,59.5 C65.9466588,58.8466634 64.6666716,57.9733388 63.68,56.88 L66.4,53.16 Z" fill="#27323E"></path>
            </g>
        </g>
    </g>
</svg>