<svg width="100px" height="100px" viewBox="0 0 100 100" version="1.1" xmlns="http://www.w3.org/2000/svg" xmlns:xlink="http://www.w3.org/1999/xlink">
    <!-- Generator: Sketch 48.2 (47327) - http://www.bohemiancoding.com/sketch -->
    <desc>Created with Sketch.</desc>
    <defs></defs>
    <g id="Page-1" stroke="none" stroke-width="1" fill="none" fill-rule="evenodd">
        <g id="Artboard" transform="translate(-281.000000, -157.000000)">
            <g id="2/5" transform="translate(281.000000, 157.000000)">
                <rect id="Fill" fill="#27323E" x="0" y="0" width="40" height="100"></rect>
                <path d="M4,4 L4,96 L96,96 L96,4 L4,4 Z M0,0 L100,0 L100,100 L0,100 L0,0 Z" id="Border" fill="#27323E" fill-rule="nonzero"></path>
                <path d="M16.32,56.64 C18.1333424,55.1199924 19.7866592,53.7000066 21.28,52.38 C22.7733408,51.0599934 24.053328,49.8266724 25.12,48.68 C26.186672,47.5333276 27.0133304,46.4533384 27.6,45.44 C28.1866696,44.4266616 28.48,43.4666712 28.48,42.56 C28.48,41.3066604 28.1200036,40.3533366 27.4,39.7 C26.6799964,39.0466634 25.65334,38.72 24.32,38.72 C23.3066616,38.72 22.3800042,38.9799974 21.54,39.5 C20.6999958,40.0200026 19.9200036,40.6266632 19.2,41.32 L16.04,38.16 C16.70667,37.49333 17.3666634,36.9066692 18.02,36.4 C18.6733366,35.8933308 19.366663,35.473335 20.1,35.14 C20.833337,34.806665 21.6066626,34.5533342 22.42,34.38 C23.2333374,34.2066658 24.1333284,34.12 25.12,34.12 C26.45334,34.12 27.6666612,34.3133314 28.76,34.7 C29.8533388,35.0866686 30.7933294,35.6333298 31.58,36.34 C32.3666706,37.0466702 32.9799978,37.8933284 33.42,38.88 C33.8600022,39.8666716 34.08,40.9733272 34.08,42.2 C34.08,43.266672 33.8266692,44.3533278 33.32,45.46 C32.8133308,46.5666722 32.126671,47.6733278 31.26,48.78 C30.393329,49.8866722 29.4000056,50.9933278 28.28,52.1 C27.1599944,53.2066722 25.9866728,54.293328 24.76,55.36 C25.4800036,55.2799996 26.2599958,55.206667 27.1,55.14 C27.9400042,55.073333 28.69333,55.04 29.36,55.04 L35.4,55.04 L35.4,60 L16.32,60 L16.32,56.64 Z M45.88,66.4 L40.96,66.4 L54.12,31.6 L59.04,31.6 L45.88,66.4 Z M66.48,53.2 C67.3333376,53.8933368 68.2466618,54.4866642 69.22,54.98 C70.1933382,55.4733358 71.279994,55.72 72.48,55.72 C73.9200072,55.72 75.0999954,55.38667 76.02,54.72 C76.9400046,54.05333 77.4,53.0666732 77.4,51.76 C77.4,50.4799936 76.966671,49.50667 76.1,48.84 C75.233329,48.17333 74.1200068,47.84 72.76,47.84 C72.3333312,47.84 71.953335,47.8599998 71.62,47.9 C71.286665,47.9400002 70.9600016,48.0133328 70.64,48.12 C70.3199984,48.2266672 69.9866684,48.3599992 69.64,48.52 C69.2933316,48.6800008 68.9066688,48.8799988 68.48,49.12 L65.88,47.44 L66.56,34.6 L82.12,34.6 L82.12,39.56 L71.64,39.56 L71.2,44.32 C71.7866696,44.1066656 72.3333308,43.9533338 72.84,43.86 C73.3466692,43.7666662 73.9199968,43.72 74.56,43.72 C75.7333392,43.72 76.8466614,43.8799984 77.9,44.2 C78.9533386,44.5200016 79.879996,44.9999968 80.68,45.64 C81.480004,46.2800032 82.113331,47.0933284 82.58,48.08 C83.046669,49.0666716 83.28,50.2399932 83.28,51.6 C83.28,53.0133404 83.0066694,54.2666612 82.46,55.36 C81.9133306,56.4533388 81.1800046,57.3799962 80.26,58.14 C79.3399954,58.9000038 78.280006,59.479998 77.08,59.88 C75.879994,60.280002 74.6266732,60.48 73.32,60.48 C71.1066556,60.48 69.233341,60.1400034 67.7,59.46 C66.166659,58.7799966 64.8800052,57.9333384 63.84,56.92 L66.48,53.2 Z" fill="#FFFFFF"></path>
                <path d="M45.88,66.4 L40.96,66.4 L54.12,31.6 L59.04,31.6 L45.88,66.4 Z M66.48,53.2 C67.3333376,53.8933368 68.2466618,54.4866642 69.22,54.98 C70.1933382,55.4733358 71.279994,55.72 72.48,55.72 C73.9200072,55.72 75.0999954,55.38667 76.02,54.72 C76.9400046,54.05333 77.4,53.0666732 77.4,51.76 C77.4,50.4799936 76.966671,49.50667 76.1,48.84 C75.233329,48.17333 74.1200068,47.84 72.76,47.84 C72.3333312,47.84 71.953335,47.8599998 71.62,47.9 C71.286665,47.9400002 70.9600016,48.0133328 70.64,48.12 C70.3199984,48.2266672 69.9866684,48.3599992 69.64,48.52 C69.2933316,48.6800008 68.9066688,48.8799988 68.48,49.12 L65.88,47.44 L66.56,34.6 L82.12,34.6 L82.12,39.56 L71.64,39.56 L71.2,44.32 C71.7866696,44.1066656 72.3333308,43.9533338 72.84,43.86 C73.3466692,43.7666662 73.9199968,43.72 74.56,43.72 C75.7333392,43.72 76.8466614,43.8799984 77.9,44.2 C78.9533386,44.5200016 79.879996,44.9999968 80.68,45.64 C81.480004,46.2800032 82.113331,47.0933284 82.58,48.08 C83.046669,49.0666716 83.28,50.2399932 83.28,51.6 C83.28,53.0133404 83.0066694,54.2666612 82.46,55.36 C81.9133306,56.4533388 81.1800046,57.3799962 80.26,58.14 C79.3399954,58.9000038 78.280006,59.479998 77.08,59.88 C75.879994,60.280002 74.6266732,60.48 73.32,60.48 C71.1066556,60.48 69.233341,60.1400034 67.7,59.46 C66.166659,58.7799966 64.8800052,57.9333384 63.84,56.92 L66.48,53.2 Z" fill="#27323E"></path>
            </g>
        </g>
    </g>
</svg>