<svg width="100px" height="100px" viewBox="0 0 100 100" version="1.1" xmlns="http://www.w3.org/2000/svg" xmlns:xlink="http://www.w3.org/1999/xlink">
    <!-- Generator: Sketch 48.2 (47327) - http://www.bohemiancoding.com/sketch -->
    <desc>Created with Sketch.</desc>
    <defs></defs>
    <g id="Page-1" stroke="none" stroke-width="1" fill="none" fill-rule="evenodd">
        <g id="Artboard" transform="translate(-401.000000, -37.000000)">
            <g id="3/4" transform="translate(401.000000, 37.000000)">
                <rect id="Fill" fill="#27323E" x="0" y="0" width="75" height="100"></rect>
                <path d="M4,4 L4,96 L96,96 L96,4 L4,4 Z M0,0 L100,0 L100,100 L0,100 L0,0 Z" id="Border" fill="#27323E" fill-rule="nonzero"></path>
                <path d="M18.4,53.16 C19.2533376,53.9066704 20.2066614,54.5199976 21.26,55 C22.3133386,55.4800024 23.4266608,55.72 24.6,55.72 C25.9866736,55.72 27.1266622,55.4600026 28.02,54.94 C28.9133378,54.4199974 29.36,53.6800048 29.36,52.72 C29.36,52.1599972 29.2400012,51.6533356 29,51.2 C28.7599988,50.7466644 28.3466696,50.3666682 27.76,50.06 C27.1733304,49.7533318 26.3866716,49.5133342 25.4,49.34 C24.4133284,49.1666658 23.1733408,49.08 21.68,49.08 L21.68,44.92 C24.1866792,44.92 25.9533282,44.6066698 26.98,43.98 C28.0066718,43.3533302 28.52,42.5333384 28.52,41.52 C28.52,40.6399956 28.18667,39.9533358 27.52,39.46 C26.85333,38.9666642 25.9333392,38.72 24.76,38.72 C23.7466616,38.72 22.8133376,38.919998 21.96,39.32 C21.1066624,39.720002 20.2400044,40.2666632 19.36,40.96 L16.4,37.36 C17.6533396,36.3466616 18.9933262,35.5533362 20.42,34.98 C21.8466738,34.4066638 23.3866584,34.12 25.04,34.12 C26.4266736,34.12 27.6933276,34.2733318 28.84,34.58 C29.9866724,34.8866682 30.9733292,35.339997 31.8,35.94 C32.6266708,36.540003 33.2666644,37.2666624 33.72,38.12 C34.1733356,38.9733376 34.4,39.9599944 34.4,41.08 C34.4,42.41334 33.9733376,43.5399954 33.12,44.46 C32.2666624,45.3800046 31.0800076,46.1333304 29.56,46.72 L29.56,46.88 C31.160008,47.3066688 32.5066612,48.0333282 33.6,49.06 C34.6933388,50.0866718 35.24,51.4266584 35.24,53.08 C35.24,54.2533392 34.9666694,55.2999954 34.42,56.22 C33.8733306,57.1400046 33.1400046,57.9133302 32.22,58.54 C31.2999954,59.1666698 30.2266728,59.646665 29,59.98 C27.7733272,60.313335 26.49334,60.48 25.16,60.48 C22.9733224,60.48 21.0933412,60.1533366 19.52,59.5 C17.9466588,58.8466634 16.6666716,57.9733388 15.68,56.88 L18.4,53.16 Z M45.88,66.4 L40.96,66.4 L54.12,31.6 L59.04,31.6 L45.88,66.4 Z M75.64,49.44 L75.64,45.16 C75.64,44.359996 75.6599998,43.4333386 75.7,42.38 C75.7400002,41.3266614 75.7866664,40.400004 75.84,39.6 L75.68,39.6 C75.2533312,40.3200036 74.8000024,41.0399964 74.32,41.76 C73.8399976,42.4800036 73.3733356,43.1999964 72.92,43.92 L69.08,49.44 L75.64,49.44 Z M84.32,53.92 L81.12,53.92 L81.12,60 L75.64,60 L75.64,53.92 L63.4,53.92 L63.4,49.88 L74,34.6 L81.12,34.6 L81.12,49.44 L84.32,49.44 L84.32,53.92 Z" fill="#FFFFFF"></path>
                <path d="M75.64,49.44 L75.64,45.16 C75.64,44.359996 75.6599998,43.4333386 75.7,42.38 C75.7400002,41.3266614 75.7866664,40.400004 75.84,39.6 L75.68,39.6 C75.2533312,40.3200036 74.8000024,41.0399964 74.32,41.76 C73.8399976,42.4800036 73.3733356,43.1999964 72.92,43.92 L69.08,49.44 L75.64,49.44 Z M84.32,53.92 L81.12,53.92 L81.12,60 L75.64,60 L75.64,53.92 L75.009874,53.92 L75.009874,46.202238 L75.009874,34.6 L81.12,34.6 L81.12,49.44 L84.32,49.44 L84.32,53.92 Z" fill="#27323E"></path>
            </g>
        </g>
    </g>
</svg>