<svg width="100px" height="100px" viewBox="0 0 100 100" version="1.1" xmlns="http://www.w3.org/2000/svg" xmlns:xlink="http://www.w3.org/1999/xlink">
    <!-- Generator: Sketch 48.2 (47327) - http://www.bohemiancoding.com/sketch -->
    <desc>Created with Sketch.</desc>
    <defs></defs>
    <g id="Page-1" stroke="none" stroke-width="1" fill="none" fill-rule="evenodd">
        <g id="Artboard" transform="translate(-41.000000, -157.000000)">
            <g id="3/5" transform="translate(41.000000, 157.000000)">
                <rect id="Fill" fill="#27323E" x="0" y="0" width="60" height="100"></rect>
                <path d="M4,4 L4,96 L96,96 L96,4 L4,4 Z M0,0 L100,0 L100,100 L0,100 L0,0 Z" id="Border" fill="#27323E" fill-rule="nonzero"></path>
                <path d="M18.4,53.16 C19.2533376,53.9066704 20.2066614,54.5199976 21.26,55 C22.3133386,55.4800024 23.4266608,55.72 24.6,55.72 C25.9866736,55.72 27.1266622,55.4600026 28.02,54.94 C28.9133378,54.4199974 29.36,53.6800048 29.36,52.72 C29.36,52.1599972 29.2400012,51.6533356 29,51.2 C28.7599988,50.7466644 28.3466696,50.3666682 27.76,50.06 C27.1733304,49.7533318 26.3866716,49.5133342 25.4,49.34 C24.4133284,49.1666658 23.1733408,49.08 21.68,49.08 L21.68,44.92 C24.1866792,44.92 25.9533282,44.6066698 26.98,43.98 C28.0066718,43.3533302 28.52,42.5333384 28.52,41.52 C28.52,40.6399956 28.18667,39.9533358 27.52,39.46 C26.85333,38.9666642 25.9333392,38.72 24.76,38.72 C23.7466616,38.72 22.8133376,38.919998 21.96,39.32 C21.1066624,39.720002 20.2400044,40.2666632 19.36,40.96 L16.4,37.36 C17.6533396,36.3466616 18.9933262,35.5533362 20.42,34.98 C21.8466738,34.4066638 23.3866584,34.12 25.04,34.12 C26.4266736,34.12 27.6933276,34.2733318 28.84,34.58 C29.9866724,34.8866682 30.9733292,35.339997 31.8,35.94 C32.6266708,36.540003 33.2666644,37.2666624 33.72,38.12 C34.1733356,38.9733376 34.4,39.9599944 34.4,41.08 C34.4,42.41334 33.9733376,43.5399954 33.12,44.46 C32.2666624,45.3800046 31.0800076,46.1333304 29.56,46.72 L29.56,46.88 C31.160008,47.3066688 32.5066612,48.0333282 33.6,49.06 C34.6933388,50.0866718 35.24,51.4266584 35.24,53.08 C35.24,54.2533392 34.9666694,55.2999954 34.42,56.22 C33.8733306,57.1400046 33.1400046,57.9133302 32.22,58.54 C31.2999954,59.1666698 30.2266728,59.646665 29,59.98 C27.7733272,60.313335 26.49334,60.48 25.16,60.48 C22.9733224,60.48 21.0933412,60.1533366 19.52,59.5 C17.9466588,58.8466634 16.6666716,57.9733388 15.68,56.88 L18.4,53.16 Z M45.88,66.4 L40.96,66.4 L54.12,31.6 L59.04,31.6 L45.88,66.4 Z M66.48,53.2 C67.3333376,53.8933368 68.2466618,54.4866642 69.22,54.98 C70.1933382,55.4733358 71.279994,55.72 72.48,55.72 C73.9200072,55.72 75.0999954,55.38667 76.02,54.72 C76.9400046,54.05333 77.4,53.0666732 77.4,51.76 C77.4,50.4799936 76.966671,49.50667 76.1,48.84 C75.233329,48.17333 74.1200068,47.84 72.76,47.84 C72.3333312,47.84 71.953335,47.8599998 71.62,47.9 C71.286665,47.9400002 70.9600016,48.0133328 70.64,48.12 C70.3199984,48.2266672 69.9866684,48.3599992 69.64,48.52 C69.2933316,48.6800008 68.9066688,48.8799988 68.48,49.12 L65.88,47.44 L66.56,34.6 L82.12,34.6 L82.12,39.56 L71.64,39.56 L71.2,44.32 C71.7866696,44.1066656 72.3333308,43.9533338 72.84,43.86 C73.3466692,43.7666662 73.9199968,43.72 74.56,43.72 C75.7333392,43.72 76.8466614,43.8799984 77.9,44.2 C78.9533386,44.5200016 79.879996,44.9999968 80.68,45.64 C81.480004,46.2800032 82.113331,47.0933284 82.58,48.08 C83.046669,49.0666716 83.28,50.2399932 83.28,51.6 C83.28,53.0133404 83.0066694,54.2666612 82.46,55.36 C81.9133306,56.4533388 81.1800046,57.3799962 80.26,58.14 C79.3399954,58.9000038 78.280006,59.479998 77.08,59.88 C75.879994,60.280002 74.6266732,60.48 73.32,60.48 C71.1066556,60.48 69.233341,60.1400034 67.7,59.46 C66.166659,58.7799966 64.8800052,57.9333384 63.84,56.92 L66.48,53.2 Z" fill="#FFFFFF"></path>
                <path d="M66.48,53.2 C67.3333376,53.8933368 68.2466618,54.4866642 69.22,54.98 C70.1933382,55.4733358 71.279994,55.72 72.48,55.72 C73.9200072,55.72 75.0999954,55.38667 76.02,54.72 C76.9400046,54.05333 77.4,53.0666732 77.4,51.76 C77.4,50.4799936 76.966671,49.50667 76.1,48.84 C75.233329,48.17333 74.1200068,47.84 72.76,47.84 C72.3333312,47.84 71.953335,47.8599998 71.62,47.9 C71.286665,47.9400002 70.9600016,48.0133328 70.64,48.12 C70.3199984,48.2266672 69.9866684,48.3599992 69.64,48.52 C69.2933316,48.6800008 68.9066688,48.8799988 68.48,49.12 L65.88,47.44 L66.56,34.6 L82.12,34.6 L82.12,39.56 L71.64,39.56 L71.2,44.32 C71.7866696,44.1066656 72.3333308,43.9533338 72.84,43.86 C73.3466692,43.7666662 73.9199968,43.72 74.56,43.72 C75.7333392,43.72 76.8466614,43.8799984 77.9,44.2 C78.9533386,44.5200016 79.879996,44.9999968 80.68,45.64 C81.480004,46.2800032 82.113331,47.0933284 82.58,48.08 C83.046669,49.0666716 83.28,50.2399932 83.28,51.6 C83.28,53.0133404 83.0066694,54.2666612 82.46,55.36 C81.9133306,56.4533388 81.1800046,57.3799962 80.26,58.14 C79.3399954,58.9000038 78.280006,59.479998 77.08,59.88 C75.879994,60.280002 74.6266732,60.48 73.32,60.48 C71.1066556,60.48 69.233341,60.1400034 67.7,59.46 C66.166659,58.7799966 64.8800052,57.9333384 63.84,56.92 L66.48,53.2 Z" fill="#27323E"></path>
            </g>
        </g>
    </g>
</svg>