<svg width="100px" height="100px" viewBox="0 0 100 100" version="1.1" xmlns="http://www.w3.org/2000/svg" xmlns:xlink="http://www.w3.org/1999/xlink">
    <!-- Generator: Sketch 48.2 (47327) - http://www.bohemiancoding.com/sketch -->
    <desc>Created with Sketch.</desc>
    <defs></defs>
    <g id="Page-1" stroke="none" stroke-width="1" fill="none" fill-rule="evenodd">
        <g id="Artboard" transform="translate(-281.000000, -37.000000)">
            <g id="4/5" transform="translate(281.000000, 37.000000)">
                <rect id="Fill" fill="#27323E" x="0" y="0" width="80" height="100"></rect>
                <path d="M4,4 L4,96 L96,96 L96,4 L4,4 Z M0,0 L100,0 L100,100 L0,100 L0,0 Z" id="Border" fill="#27323E" fill-rule="nonzero"></path>
                <path d="M27.64,49.44 L27.64,45.16 C27.64,44.359996 27.6599998,43.4333386 27.7,42.38 C27.7400002,41.3266614 27.7866664,40.400004 27.84,39.6 L27.68,39.6 C27.2533312,40.3200036 26.8000024,41.0399964 26.32,41.76 C25.8399976,42.4800036 25.3733356,43.1999964 24.92,43.92 L21.08,49.44 L27.64,49.44 Z M36.32,53.92 L33.12,53.92 L33.12,60 L27.64,60 L27.64,53.92 L15.4,53.92 L15.4,49.88 L26,34.6 L33.12,34.6 L33.12,49.44 L36.32,49.44 L36.32,53.92 Z M45.88,66.4 L40.96,66.4 L54.12,31.6 L59.04,31.6 L45.88,66.4 Z M66.48,53.2 C67.3333376,53.8933368 68.2466618,54.4866642 69.22,54.98 C70.1933382,55.4733358 71.279994,55.72 72.48,55.72 C73.9200072,55.72 75.0999954,55.38667 76.02,54.72 C76.9400046,54.05333 77.4,53.0666732 77.4,51.76 C77.4,50.4799936 76.966671,49.50667 76.1,48.84 C75.233329,48.17333 74.1200068,47.84 72.76,47.84 C72.3333312,47.84 71.953335,47.8599998 71.62,47.9 C71.286665,47.9400002 70.9600016,48.0133328 70.64,48.12 C70.3199984,48.2266672 69.9866684,48.3599992 69.64,48.52 C69.2933316,48.6800008 68.9066688,48.8799988 68.48,49.12 L65.88,47.44 L66.56,34.6 L82.12,34.6 L82.12,39.56 L71.64,39.56 L71.2,44.32 C71.7866696,44.1066656 72.3333308,43.9533338 72.84,43.86 C73.3466692,43.7666662 73.9199968,43.72 74.56,43.72 C75.7333392,43.72 76.8466614,43.8799984 77.9,44.2 C78.9533386,44.5200016 79.879996,44.9999968 80.68,45.64 C81.480004,46.2800032 82.113331,47.0933284 82.58,48.08 C83.046669,49.0666716 83.28,50.2399932 83.28,51.6 C83.28,53.0133404 83.0066694,54.2666612 82.46,55.36 C81.9133306,56.4533388 81.1800046,57.3799962 80.26,58.14 C79.3399954,58.9000038 78.280006,59.479998 77.08,59.88 C75.879994,60.280002 74.6266732,60.48 73.32,60.48 C71.1066556,60.48 69.233341,60.1400034 67.7,59.46 C66.166659,58.7799966 64.8800052,57.9333384 63.84,56.92 L66.48,53.2 Z" fill="#FFFFFF"></path>
                <path d="M80.0447736,34.6 L82.12,34.6 L82.12,39.56 L79.8312413,39.56 C79.2990956,42.5368236 79.4420151,44.4311338 80.26,45.2429307 C81.4869773,46.460626 79.879996,44.9999968 80.68,45.64 C81.480004,46.2800032 82.113331,47.0933284 82.58,48.08 C83.046669,49.0666716 83.28,50.2399932 83.28,51.6 C83.28,53.0133404 83.0066694,54.2666612 82.46,55.36 C82.0955537,56.0888925 81.2904783,57.0759765 80.0447736,58.3212519 L80.0447736,34.6 Z" fill="#27323E"></path>
            </g>
        </g>
    </g>
</svg>