<svg width="100px" height="100px" viewBox="0 0 100 100" version="1.1" xmlns="http://www.w3.org/2000/svg" xmlns:xlink="http://www.w3.org/1999/xlink">
    <!-- Generator: Sketch 48.2 (47327) - http://www.bohemiancoding.com/sketch -->
    <desc>Created with Sketch.</desc>
    <defs></defs>
    <g id="Page-1" stroke="none" stroke-width="1" fill="none" fill-rule="evenodd">
        <g id="Artboard" transform="translate(-161.000000, -37.000000)">
            <g id="5/6" transform="translate(161.000000, 37.000000)">
                <rect id="Fill" fill="#27323E" x="0" y="0" width="83.3300018" height="100"></rect>
                <path d="M4,4 L4,96 L96,96 L96,4 L4,4 Z M0,0 L100,0 L100,100 L0,100 L0,0 Z" id="Border" fill="#27323E" fill-rule="nonzero"></path>
                <path d="M18.48,53.2 C19.3333376,53.8933368 20.2466618,54.4866642 21.22,54.98 C22.1933382,55.4733358 23.279994,55.72 24.48,55.72 C25.9200072,55.72 27.0999954,55.38667 28.02,54.72 C28.9400046,54.05333 29.4,53.0666732 29.4,51.76 C29.4,50.4799936 28.966671,49.50667 28.1,48.84 C27.233329,48.17333 26.1200068,47.84 24.76,47.84 C24.3333312,47.84 23.953335,47.8599998 23.62,47.9 C23.286665,47.9400002 22.9600016,48.0133328 22.64,48.12 C22.3199984,48.2266672 21.9866684,48.3599992 21.64,48.52 C21.2933316,48.6800008 20.9066688,48.8799988 20.48,49.12 L17.88,47.44 L18.56,34.6 L34.12,34.6 L34.12,39.56 L23.64,39.56 L23.2,44.32 C23.7866696,44.1066656 24.3333308,43.9533338 24.84,43.86 C25.3466692,43.7666662 25.9199968,43.72 26.56,43.72 C27.7333392,43.72 28.8466614,43.8799984 29.9,44.2 C30.9533386,44.5200016 31.879996,44.9999968 32.68,45.64 C33.480004,46.2800032 34.113331,47.0933284 34.58,48.08 C35.046669,49.0666716 35.28,50.2399932 35.28,51.6 C35.28,53.0133404 35.0066694,54.2666612 34.46,55.36 C33.9133306,56.4533388 33.1800046,57.3799962 32.26,58.14 C31.3399954,58.9000038 30.280006,59.479998 29.08,59.88 C27.879994,60.280002 26.6266732,60.48 25.32,60.48 C23.1066556,60.48 21.233341,60.1400034 19.7,59.46 C18.166659,58.7799966 16.8800052,57.9333384 15.84,56.92 L18.48,53.2 Z M45.88,66.4 L40.96,66.4 L54.12,31.6 L59.04,31.6 L45.88,66.4 Z M74.56,56.08 C75.0666692,56.08 75.553331,56.0000008 76.02,55.84 C76.486669,55.6799992 76.8999982,55.433335 77.26,55.1 C77.6200018,54.766665 77.9066656,54.3400026 78.12,53.82 C78.3333344,53.2999974 78.44,52.6800036 78.44,51.96 C78.44,50.6533268 78.0933368,49.7133362 77.4,49.14 C76.7066632,48.5666638 75.8000056,48.28 74.68,48.28 C73.9333296,48.28 73.160004,48.4666648 72.36,48.84 C71.559996,49.2133352 70.7733372,49.8533288 70,50.76 C70.1600008,51.7733384 70.3933318,52.6199966 70.7,53.3 C71.0066682,53.9800034 71.359998,54.5266646 71.76,54.94 C72.160002,55.3533354 72.5999976,55.6466658 73.08,55.82 C73.5600024,55.9933342 74.0533308,56.08 74.56,56.08 Z M80.36,40.68 C79.826664,40.1999976 79.160004,39.7800018 78.36,39.42 C77.559996,39.0599982 76.7333376,38.88 75.88,38.88 C75.1066628,38.88 74.3666702,39.0199986 73.66,39.3 C72.9533298,39.5800014 72.3266694,40.0333302 71.78,40.66 C71.2333306,41.2866698 70.7866684,42.1066616 70.44,43.12 C70.0933316,44.1333384 69.8933336,45.3866592 69.84,46.88 C70.7466712,45.9999956 71.7533278,45.3200024 72.86,44.84 C73.9666722,44.3599976 74.9999952,44.12 75.96,44.12 C77.0800056,44.12 78.1133286,44.2799984 79.06,44.6 C80.0066714,44.9200016 80.8333298,45.3999968 81.54,46.04 C82.2466702,46.6800032 82.799998,47.4933284 83.2,48.48 C83.600002,49.4666716 83.8,50.62666 83.8,51.96 C83.8,53.29334 83.5533358,54.4799948 83.06,55.52 C82.5666642,56.5600052 81.9000042,57.4533296 81.06,58.2 C80.2199958,58.9466704 79.2533388,59.5133314 78.16,59.9 C77.0666612,60.2866686 75.9066728,60.48 74.68,60.48 C73.3733268,60.48 72.1066728,60.2400024 70.88,59.76 C69.6533272,59.2799976 68.5600048,58.5333384 67.6,57.52 C66.6399952,56.5066616 65.8666696,55.2066746 65.28,53.62 C64.6933304,52.0333254 64.4,50.1200112 64.4,47.88 C64.4,45.5066548 64.7066636,43.453342 65.32,41.72 C65.9333364,39.986658 66.7533282,38.5600056 67.78,37.44 C68.8066718,36.3199944 69.9733268,35.4866694 71.28,34.94 C72.5866732,34.3933306 73.9466596,34.12 75.36,34.12 C77.1733424,34.12 78.7599932,34.419997 80.12,35.02 C81.4800068,35.620003 82.5866624,36.3333292 83.44,37.16 L80.36,40.68 Z" fill="#FFFFFF"></path>
            </g>
        </g>
    </g>
</svg>